<svg xmlns="http://www.w3.org/2000/svg" viewBox="0 0 240 800" preserveAspectRatio="xMidYMid slice" role="img" aria-label="Genesis Workbench sidebar"><defs><linearGradient id="fade" x1="0" y1="0" x2="0" y2="1"><stop offset="0" stop-color="#fff" stop-opacity="0.04"/><stop offset="0.2" stop-color="#fff" stop-opacity="0.35"/><stop offset="0.5" stop-color="#fff" stop-opacity="0.95"/><stop offset="0.8" stop-color="#fff" stop-opacity="0.35"/><stop offset="1" stop-color="#fff" stop-opacity="0.04"/></linearGradient><mask id="fademask"><rect width="240" height="800" fill="url(#fade)"/></mask></defs><g mask="url(#fademask)" opacity="0.4"><line x1="135.3" y1="120.0" x2="109.3" y2="135.0" stroke="#5eead4" stroke-width="7.800000000000001" stroke-linecap="round"/><line x1="109.3" y1="135.0" x2="83.4" y2="120.0" stroke="#5eead4" stroke-width="7.800000000000001" stroke-linecap="round"/><line x1="83.4" y1="120.0" x2="83.4" y2="90.0" stroke="#5eead4" stroke-width="7.800000000000001" stroke-linecap="round"/><line x1="83.4" y1="90.0" x2="109.3" y2="75.0" stroke="#5eead4" stroke-width="7.800000000000001" stroke-linecap="round"/><line x1="109.3" y1="75.0" x2="135.3" y2="90.0" stroke="#5eead4" stroke-width="7.800000000000001" stroke-linecap="round"/><line x1="135.3" y1="90.0" x2="135.3" y2="120.0" stroke="#5eead4" stroke-width="7.800000000000001" stroke-linecap="round"/><line x1="161.3" y1="165.0" x2="135.3" y2="180.0" stroke="#5eead4" stroke-width="7.800000000000001" stroke-linecap="round"/><line x1="135.3" y1="180.0" x2="109.3" y2="165.0" stroke="#5eead4" stroke-width="7.800000000000001" stroke-linecap="round"/><line x1="109.3" y1="165.0" x2="109.3" y2="135.0" stroke="#5eead4" stroke-width="7.800000000000001" stroke-linecap="round"/><line x1="135.3" y1="120.0" x2="161.3" y2="135.0" stroke="#5eead4" stroke-width="7.800000000000001" stroke-linecap="round"/><line x1="161.3" y1="135.0" x2="161.3" y2="165.0" stroke="#5eead4" stroke-width="7.800000000000001" stroke-linecap="round"/><line x1="135.3" y1="210.0" x2="109.3" y2="225.0" stroke="#5eead4" stroke-width="7.800000000000001" stroke-linecap="round"/><line x1="109.3" y1="225.0" x2="83.4" y2="210.0" stroke="#5eead4" stroke-width="7.800000000000001" stroke-linecap="round"/><line x1="83.4" y1="210.0" x2="83.4" y2="180.0" stroke="#5eead4" stroke-width="7.800000000000001" stroke-linecap="round"/><line x1="83.4" y1="180.0" x2="109.3" y2="165.0" stroke="#5eead4" stroke-width="7.800000000000001" stroke-linecap="round"/><line x1="135.3" y1="180.0" x2="135.3" y2="210.0" stroke="#5eead4" stroke-width="7.800000000000001" stroke-linecap="round"/><line x1="125.1" y1="110.6" x2="106.3" y2="121.4" stroke="#5eead4" stroke-width="6.630000000000001" stroke-linecap="round" opacity="0.85"/><line x1="96.6" y1="115.8" x2="96.6" y2="94.2" stroke="#5eead4" stroke-width="6.630000000000001" stroke-linecap="round" opacity="0.85"/><line x1="106.3" y1="88.6" x2="125.1" y2="99.4" stroke="#5eead4" stroke-width="6.630000000000001" stroke-linecap="round" opacity="0.85"/><line x1="151.0" y1="155.6" x2="132.3" y2="166.4" stroke="#5eead4" stroke-width="6.630000000000001" stroke-linecap="round" opacity="0.85"/><line x1="122.6" y1="160.8" x2="122.6" y2="139.2" stroke="#5eead4" stroke-width="6.630000000000001" stroke-linecap="round" opacity="0.85"/><line x1="132.3" y1="133.6" x2="151.0" y2="144.4" stroke="#5eead4" stroke-width="6.630000000000001" stroke-linecap="round" opacity="0.85"/><line x1="125.1" y1="200.6" x2="106.3" y2="211.4" stroke="#5eead4" stroke-width="6.630000000000001" stroke-linecap="round" opacity="0.85"/><line x1="96.6" y1="205.8" x2="96.6" y2="184.2" stroke="#5eead4" stroke-width="6.630000000000001" stroke-linecap="round" opacity="0.85"/><line x1="106.3" y1="178.6" x2="125.1" y2="189.4" stroke="#5eead4" stroke-width="6.630000000000001" stroke-linecap="round" opacity="0.85"/><line x1="83.4" y1="90.0" x2="69.5" y2="65.1" stroke="#5eead4" stroke-width="7.800000000000001" stroke-linecap="round"/><circle cx="69.5" cy="65.1" r="10.8" fill="#1f1f1f" stroke="#5eead4" stroke-width="7.800000000000001"/><line x1="109.3" y1="75.0" x2="106.5" y2="46.6" stroke="#5eead4" stroke-width="7.800000000000001" stroke-linecap="round"/><circle cx="106.5" cy="46.6" r="10.8" fill="#1f1f1f" stroke="#5eead4" stroke-width="7.800000000000001"/><line x1="161.3" y1="135.0" x2="188.3" y2="125.9" stroke="#5eead4" stroke-width="7.800000000000001" stroke-linecap="round"/><circle cx="188.3" cy="125.9" r="10.8" fill="#1f1f1f" stroke="#5eead4" stroke-width="7.800000000000001"/><circle cx="135.3" cy="120.0" r="10.8" fill="#1f1f1f" stroke="#5eead4" stroke-width="7.800000000000001"/><circle cx="109.3" cy="135.0" r="10.8" fill="#1f1f1f" stroke="#5eead4" stroke-width="7.800000000000001"/><circle cx="135.3" cy="180.0" r="10.8" fill="#1f1f1f" stroke="#5eead4" stroke-width="7.800000000000001"/><circle cx="109.3" cy="165.0" r="10.8" fill="#1f1f1f" stroke="#5eead4" stroke-width="7.800000000000001"/><line x1="103.8" y1="410.0" x2="79.6" y2="424.0" stroke="#7dd3fc" stroke-width="7.28" stroke-linecap="round"/><line x1="79.6" y1="424.0" x2="55.3" y2="410.0" stroke="#7dd3fc" stroke-width="7.28" stroke-linecap="round"/><line x1="55.3" y1="410.0" x2="55.3" y2="382.0" stroke="#7dd3fc" stroke-width="7.28" stroke-linecap="round"/><line x1="55.3" y1="382.0" x2="79.6" y2="368.0" stroke="#7dd3fc" stroke-width="7.28" stroke-linecap="round"/><line x1="79.6" y1="368.0" x2="103.8" y2="382.0" stroke="#7dd3fc" stroke-width="7.28" stroke-linecap="round"/><line x1="103.8" y1="382.0" x2="103.8" y2="410.0" stroke="#7dd3fc" stroke-width="7.28" stroke-linecap="round"/><line x1="152.3" y1="410.0" x2="128.1" y2="424.0" stroke="#7dd3fc" stroke-width="7.28" stroke-linecap="round"/><line x1="128.1" y1="424.0" x2="103.8" y2="410.0" stroke="#7dd3fc" stroke-width="7.28" stroke-linecap="round"/><line x1="103.8" y1="382.0" x2="128.1" y2="368.0" stroke="#7dd3fc" stroke-width="7.28" stroke-linecap="round"/><line x1="128.1" y1="368.0" x2="152.3" y2="382.0" stroke="#7dd3fc" stroke-width="7.28" stroke-linecap="round"/><line x1="152.3" y1="382.0" x2="152.3" y2="410.0" stroke="#7dd3fc" stroke-width="7.28" stroke-linecap="round"/><line x1="176.6" y1="452.0" x2="152.3" y2="466.0" stroke="#7dd3fc" stroke-width="7.28" stroke-linecap="round"/><line x1="152.3" y1="466.0" x2="128.1" y2="452.0" stroke="#7dd3fc" stroke-width="7.28" stroke-linecap="round"/><line x1="128.1" y1="452.0" x2="128.1" y2="424.0" stroke="#7dd3fc" stroke-width="7.28" stroke-linecap="round"/><line x1="152.3" y1="410.0" x2="176.6" y2="424.0" stroke="#7dd3fc" stroke-width="7.28" stroke-linecap="round"/><line x1="176.6" y1="424.0" x2="176.6" y2="452.0" stroke="#7dd3fc" stroke-width="7.28" stroke-linecap="round"/><line x1="94.3" y1="401.2" x2="76.8" y2="411.3" stroke="#7dd3fc" stroke-width="6.188" stroke-linecap="round" opacity="0.85"/><line x1="67.7" y1="406.1" x2="67.7" y2="385.9" stroke="#7dd3fc" stroke-width="6.188" stroke-linecap="round" opacity="0.85"/><line x1="76.8" y1="380.7" x2="94.3" y2="390.8" stroke="#7dd3fc" stroke-width="6.188" stroke-linecap="round" opacity="0.85"/><line x1="142.7" y1="401.2" x2="125.3" y2="411.3" stroke="#7dd3fc" stroke-width="6.188" stroke-linecap="round" opacity="0.85"/><line x1="116.2" y1="406.1" x2="116.2" y2="385.9" stroke="#7dd3fc" stroke-width="6.188" stroke-linecap="round" opacity="0.85"/><line x1="125.3" y1="380.7" x2="142.7" y2="390.8" stroke="#7dd3fc" stroke-width="6.188" stroke-linecap="round" opacity="0.85"/><line x1="167.0" y1="443.2" x2="149.5" y2="453.3" stroke="#7dd3fc" stroke-width="6.188" stroke-linecap="round" opacity="0.85"/><line x1="140.5" y1="448.1" x2="140.5" y2="427.9" stroke="#7dd3fc" stroke-width="6.188" stroke-linecap="round" opacity="0.85"/><line x1="149.5" y1="422.7" x2="167.0" y2="432.8" stroke="#7dd3fc" stroke-width="6.188" stroke-linecap="round" opacity="0.85"/><line x1="55.3" y1="382.0" x2="31.1" y2="371.0" stroke="#7dd3fc" stroke-width="7.28" stroke-linecap="round"/><circle cx="31.1" cy="371.0" r="10.1" fill="#1f1f1f" stroke="#7dd3fc" stroke-width="7.28"/><line x1="79.6" y1="368.0" x2="61.5" y2="348.5" stroke="#7dd3fc" stroke-width="7.28" stroke-linecap="round"/><circle cx="61.5" cy="348.5" r="10.1" fill="#1f1f1f" stroke="#7dd3fc" stroke-width="7.28"/><line x1="128.1" y1="368.0" x2="133.3" y2="341.9" stroke="#7dd3fc" stroke-width="7.28" stroke-linecap="round"/><circle cx="133.3" cy="341.9" r="10.1" fill="#1f1f1f" stroke="#7dd3fc" stroke-width="7.28"/><line x1="152.3" y1="382.0" x2="172.3" y2="364.4" stroke="#7dd3fc" stroke-width="7.28" stroke-linecap="round"/><circle cx="172.3" cy="364.4" r="10.1" fill="#1f1f1f" stroke="#7dd3fc" stroke-width="7.28"/><line x1="176.6" y1="424.0" x2="202.5" y2="429.9" stroke="#7dd3fc" stroke-width="7.28" stroke-linecap="round"/><circle cx="202.5" cy="429.9" r="10.1" fill="#1f1f1f" stroke="#7dd3fc" stroke-width="7.28"/><circle cx="103.8" cy="410.0" r="10.1" fill="#1f1f1f" stroke="#7dd3fc" stroke-width="7.28"/><circle cx="103.8" cy="382.0" r="10.1" fill="#1f1f1f" stroke="#7dd3fc" stroke-width="7.28"/><circle cx="152.3" cy="410.0" r="10.1" fill="#1f1f1f" stroke="#7dd3fc" stroke-width="7.28"/><circle cx="128.1" cy="424.0" r="10.1" fill="#1f1f1f" stroke="#7dd3fc" stroke-width="7.28"/><line x1="135.3" y1="630.0" x2="109.3" y2="645.0" stroke="#34d399" stroke-width="7.800000000000001" stroke-linecap="round"/><line x1="109.3" y1="645.0" x2="83.4" y2="630.0" stroke="#34d399" stroke-width="7.800000000000001" stroke-linecap="round"/><line x1="83.4" y1="630.0" x2="83.4" y2="600.0" stroke="#34d399" stroke-width="7.800000000000001" stroke-linecap="round"/><line x1="83.4" y1="600.0" x2="109.3" y2="585.0" stroke="#34d399" stroke-width="7.800000000000001" stroke-linecap="round"/><line x1="109.3" y1="585.0" x2="135.3" y2="600.0" stroke="#34d399" stroke-width="7.800000000000001" stroke-linecap="round"/><line x1="135.3" y1="600.0" x2="135.3" y2="630.0" stroke="#34d399" stroke-width="7.800000000000001" stroke-linecap="round"/><line x1="161.3" y1="675.0" x2="135.3" y2="690.0" stroke="#34d399" stroke-width="7.800000000000001" stroke-linecap="round"/><line x1="135.3" y1="690.0" x2="109.3" y2="675.0" stroke="#34d399" stroke-width="7.800000000000001" stroke-linecap="round"/><line x1="109.3" y1="675.0" x2="109.3" y2="645.0" stroke="#34d399" stroke-width="7.800000000000001" stroke-linecap="round"/><line x1="135.3" y1="630.0" x2="161.3" y2="645.0" stroke="#34d399" stroke-width="7.800000000000001" stroke-linecap="round"/><line x1="161.3" y1="645.0" x2="161.3" y2="675.0" stroke="#34d399" stroke-width="7.800000000000001" stroke-linecap="round"/><line x1="135.3" y1="720.0" x2="109.3" y2="735.0" stroke="#34d399" stroke-width="7.800000000000001" stroke-linecap="round"/><line x1="109.3" y1="735.0" x2="83.4" y2="720.0" stroke="#34d399" stroke-width="7.800000000000001" stroke-linecap="round"/><line x1="83.4" y1="720.0" x2="83.4" y2="690.0" stroke="#34d399" stroke-width="7.800000000000001" stroke-linecap="round"/><line x1="83.4" y1="690.0" x2="109.3" y2="675.0" stroke="#34d399" stroke-width="7.800000000000001" stroke-linecap="round"/><line x1="135.3" y1="690.0" x2="135.3" y2="720.0" stroke="#34d399" stroke-width="7.800000000000001" stroke-linecap="round"/><line x1="125.1" y1="620.6" x2="106.3" y2="631.4" stroke="#34d399" stroke-width="6.630000000000001" stroke-linecap="round" opacity="0.85"/><line x1="96.6" y1="625.8" x2="96.6" y2="604.2" stroke="#34d399" stroke-width="6.630000000000001" stroke-linecap="round" opacity="0.85"/><line x1="106.3" y1="598.6" x2="125.1" y2="609.4" stroke="#34d399" stroke-width="6.630000000000001" stroke-linecap="round" opacity="0.85"/><line x1="151.0" y1="665.6" x2="132.3" y2="676.4" stroke="#34d399" stroke-width="6.630000000000001" stroke-linecap="round" opacity="0.85"/><line x1="122.6" y1="670.8" x2="122.6" y2="649.2" stroke="#34d399" stroke-width="6.630000000000001" stroke-linecap="round" opacity="0.85"/><line x1="132.3" y1="643.6" x2="151.0" y2="654.4" stroke="#34d399" stroke-width="6.630000000000001" stroke-linecap="round" opacity="0.85"/><line x1="125.1" y1="710.6" x2="106.3" y2="721.4" stroke="#34d399" stroke-width="6.630000000000001" stroke-linecap="round" opacity="0.85"/><line x1="96.6" y1="715.8" x2="96.6" y2="694.2" stroke="#34d399" stroke-width="6.630000000000001" stroke-linecap="round" opacity="0.85"/><line x1="106.3" y1="688.6" x2="125.1" y2="699.4" stroke="#34d399" stroke-width="6.630000000000001" stroke-linecap="round" opacity="0.85"/><line x1="83.4" y1="690.0" x2="62.2" y2="709.0" stroke="#34d399" stroke-width="7.800000000000001" stroke-linecap="round"/><circle cx="62.2" cy="709.0" r="10.8" fill="#1f1f1f" stroke="#34d399" stroke-width="7.800000000000001"/><line x1="135.3" y1="600.0" x2="143.7" y2="572.8" stroke="#34d399" stroke-width="7.800000000000001" stroke-linecap="round"/><circle cx="143.7" cy="572.8" r="10.8" fill="#1f1f1f" stroke="#34d399" stroke-width="7.800000000000001"/><circle cx="135.3" cy="630.0" r="10.8" fill="#1f1f1f" stroke="#34d399" stroke-width="7.800000000000001"/><circle cx="109.3" cy="645.0" r="10.8" fill="#1f1f1f" stroke="#34d399" stroke-width="7.800000000000001"/><circle cx="135.3" cy="690.0" r="10.8" fill="#1f1f1f" stroke="#34d399" stroke-width="7.800000000000001"/><circle cx="109.3" cy="675.0" r="10.8" fill="#1f1f1f" stroke="#34d399" stroke-width="7.800000000000001"/></g></svg>