<svg xmlns="http://www.w3.org/2000/svg" viewBox="0 0 240 800" preserveAspectRatio="xMidYMid slice" role="img" aria-label="Genesis Workbench vertical sidebar background (light)"><defs><linearGradient id="bgv" x1="0" y1="0" x2="0" y2="1"><stop offset="0" stop-color="#0a8f8f"/><stop offset="1" stop-color="#016566"/></linearGradient><linearGradient id="fade" x1="0" y1="0" x2="0" y2="1"><stop offset="0" stop-color="#fff" stop-opacity="0"/><stop offset="0.40" stop-color="#fff" stop-opacity="0"/><stop offset="0.53" stop-color="#fff" stop-opacity="0.85"/><stop offset="0.65" stop-color="#fff" stop-opacity="1"/><stop offset="0.78" stop-color="#fff" stop-opacity="0.7"/><stop offset="0.90" stop-color="#fff" stop-opacity="0"/><stop offset="1" stop-color="#fff" stop-opacity="0"/></linearGradient><mask id="fademask"><rect width="240" height="800" fill="url(#fade)"/></mask></defs><rect width="240" height="800" fill="url(#bgv)"/><g mask="url(#fademask)"><g opacity="0.32"><g opacity="0.2"><animate attributeName="opacity" values="0.2;0.85;0.2" keyTimes="0;0.5;1" dur="8.3s" begin="-7.4s" repeatCount="indefinite" calcMode="spline" keySplines="0.42 0 0.58 1;0.42 0 0.58 1"/><polyline points="199.6,497.4 188.1,504.1 176.5,497.4 176.5,484.1 188.1,477.4 199.6,484.1 199.6,497.4" fill="none" stroke="#bfeee4" stroke-width="1.2" opacity="0.45" stroke-linejoin="round"/><circle cx="199.6" cy="497.4" r="1.1" fill="#bfeee4" opacity="0.45"/><circle cx="188.1" cy="504.1" r="1.1" fill="#bfeee4" opacity="0.45"/><circle cx="176.5" cy="497.4" r="1.1" fill="#bfeee4" opacity="0.45"/><circle cx="176.5" cy="484.1" r="1.1" fill="#bfeee4" opacity="0.45"/><circle cx="188.1" cy="477.4" r="1.1" fill="#bfeee4" opacity="0.45"/><circle cx="199.6" cy="484.1" r="1.1" fill="#bfeee4" opacity="0.45"/></g><polyline points="145.1,660.7 132.6,668.0 120.0,660.7 120.0,646.2 132.6,639.0 145.1,646.2 145.1,660.7" fill="none" stroke="#bfeee4" stroke-width="1.2" opacity="0.45" stroke-linejoin="round"/><circle cx="145.1" cy="660.7" r="1.1" fill="#bfeee4" opacity="0.45"/><circle cx="132.6" cy="668.0" r="1.1" fill="#bfeee4" opacity="0.45"/><circle cx="120.0" cy="660.7" r="1.1" fill="#bfeee4" opacity="0.45"/><circle cx="120.0" cy="646.2" r="1.1" fill="#bfeee4" opacity="0.45"/><circle cx="132.6" cy="639.0" r="1.1" fill="#bfeee4" opacity="0.45"/><circle cx="145.1" cy="646.2" r="1.1" fill="#bfeee4" opacity="0.45"/><polyline points="69.8,505.5 57.1,512.8 44.3,505.5 44.3,490.8 57.1,483.5 69.8,490.8 69.8,505.5" fill="none" stroke="#bfeee4" stroke-width="1.2" opacity="0.45" stroke-linejoin="round"/><circle cx="69.8" cy="505.5" r="1.1" fill="#bfeee4" opacity="0.45"/><circle cx="57.1" cy="512.8" r="1.1" fill="#bfeee4" opacity="0.45"/><circle cx="44.3" cy="505.5" r="1.1" fill="#bfeee4" opacity="0.45"/><circle cx="44.3" cy="490.8" r="1.1" fill="#bfeee4" opacity="0.45"/><circle cx="57.1" cy="483.5" r="1.1" fill="#bfeee4" opacity="0.45"/><circle cx="69.8" cy="490.8" r="1.1" fill="#bfeee4" opacity="0.45"/><polyline points="142.4,393.2 127.8,401.6 113.1,393.2 113.1,376.2 127.8,367.7 142.4,376.2 142.4,393.2" fill="none" stroke="#bfeee4" stroke-width="1.2" opacity="0.45" stroke-linejoin="round"/><circle cx="142.4" cy="393.2" r="1.1" fill="#bfeee4" opacity="0.45"/><circle cx="127.8" cy="401.6" r="1.1" fill="#bfeee4" opacity="0.45"/><circle cx="113.1" cy="393.2" r="1.1" fill="#bfeee4" opacity="0.45"/><circle cx="113.1" cy="376.2" r="1.1" fill="#bfeee4" opacity="0.45"/><circle cx="127.8" cy="367.7" r="1.1" fill="#bfeee4" opacity="0.45"/><circle cx="142.4" cy="376.2" r="1.1" fill="#bfeee4" opacity="0.45"/><polyline points="202.0,348.0 203.1,352.0 203.9,356.0 204.5,360.0 204.9,364.0 205.0,368.0 204.8,372.0 204.4,376.0 203.8,380.0 202.9,384.0 201.8,388.0 200.5,392.0 199.1,396.0 197.5,400.0 195.9,404.0 194.2,408.0 192.5,412.0 190.8,416.0 189.3,420.0 187.8,424.0 186.5,428.0 185.3,432.0 184.4,436.0 183.7,440.0 183.2,444.0 183.0,448.0 183.1,452.0 183.4,456.0 183.9,460.0 184.7,464.0 185.7,468.0 186.9,472.0 188.3,476.0 189.8,480.0 191.4,484.0 193.1,488.0 194.8,492.0 196.5,496.0 198.1,500.0 199.6,504.0 201.0,508.0 202.2,512.0 203.2,516.0 204.0,520.0 204.6,524.0 204.9,528.0 205.0,532.0 204.8,536.0 204.3,540.0 203.6,544.0 202.7,548.0 201.6,552.0 200.3,556.0 198.8,560.0 197.2,564.0 195.6,568.0 193.9,572.0 192.2,576.0 190.6,580.0 189.0,584.0 187.6,588.0 186.3,592.0 185.2,596.0 184.3,600.0 183.6,604.0 183.2,608.0 183.0,612.0 183.1,616.0 183.4,620.0 184.0,624.0 184.9,628.0 185.9,632.0 187.2,636.0 188.6,640.0 190.1,644.0 191.7,648.0 193.4,652.0 195.1,656.0 196.7,660.0 198.3,664.0 199.8,668.0 201.2,672.0 202.4,676.0 203.4,680.0 204.1,684.0 204.7,688.0 205.0,692.0 205.0,696.0" fill="none" stroke="#bfeee4" stroke-width="1.2" opacity="0.4" stroke-linecap="round"/><polyline points="186.0,348.0 184.9,352.0 184.1,356.0 183.5,360.0 183.1,364.0 183.0,368.0 183.2,372.0 183.6,376.0 184.2,380.0 185.1,384.0 186.2,388.0 187.5,392.0 188.9,396.0 190.5,400.0 192.1,404.0 193.8,408.0 195.5,412.0 197.2,416.0 198.7,420.0 200.2,424.0 201.5,428.0 202.7,432.0 203.6,436.0 204.3,440.0 204.8,444.0 205.0,448.0 204.9,452.0 204.6,456.0 204.1,460.0 203.3,464.0 202.3,468.0 201.1,472.0 199.7,476.0 198.2,480.0 196.6,484.0 194.9,488.0 193.2,492.0 191.5,496.0 189.9,500.0 188.4,504.0 187.0,508.0 185.8,512.0 184.8,516.0 184.0,520.0 183.4,524.0 183.1,528.0 183.0,532.0 183.2,536.0 183.7,540.0 184.4,544.0 185.3,548.0 186.4,552.0 187.7,556.0 189.2,560.0 190.8,564.0 192.4,568.0 194.1,572.0 195.8,576.0 197.4,580.0 199.0,584.0 200.4,588.0 201.7,592.0 202.8,596.0 203.7,600.0 204.4,604.0 204.8,608.0 205.0,612.0 204.9,616.0 204.6,620.0 204.0,624.0 203.1,628.0 202.1,632.0 200.8,636.0 199.4,640.0 197.9,644.0 196.3,648.0 194.6,652.0 192.9,656.0 191.3,660.0 189.7,664.0 188.2,668.0 186.8,672.0 185.6,676.0 184.6,680.0 183.9,684.0 183.3,688.0 183.0,692.0 183.0,696.0" fill="none" stroke="#bfeee4" stroke-width="1.2" opacity="0.4" stroke-linecap="round"/><line x1="203.9" y1="356" x2="184.1" y2="356" stroke="#bfeee4" stroke-width="0.9" opacity="0.32"/><line x1="204.7" y1="374" x2="183.3" y2="374" stroke="#bfeee4" stroke-width="0.9" opacity="0.32"/><line x1="200.5" y1="392" x2="187.5" y2="392" stroke="#bfeee4" stroke-width="0.9" opacity="0.32"/><line x1="193.3" y1="410" x2="194.7" y2="410" stroke="#bfeee4" stroke-width="0.9" opacity="0.32"/><line x1="186.5" y1="428" x2="201.5" y2="428" stroke="#bfeee4" stroke-width="0.9" opacity="0.32"/><line x1="183.1" y1="446" x2="204.9" y2="446" stroke="#bfeee4" stroke-width="0.9" opacity="0.32"/><line x1="184.7" y1="464" x2="203.3" y2="464" stroke="#bfeee4" stroke-width="0.9" opacity="0.32"/><line x1="190.6" y1="482" x2="197.4" y2="482" stroke="#bfeee4" stroke-width="0.9" opacity="0.32"/><line x1="198.1" y1="500" x2="189.9" y2="500" stroke="#bfeee4" stroke-width="0.9" opacity="0.32"/><line x1="203.7" y1="518" x2="184.3" y2="518" stroke="#bfeee4" stroke-width="0.9" opacity="0.32"/><line x1="204.8" y1="536" x2="183.2" y2="536" stroke="#bfeee4" stroke-width="0.9" opacity="0.32"/><line x1="200.9" y1="554" x2="187.1" y2="554" stroke="#bfeee4" stroke-width="0.9" opacity="0.32"/><line x1="193.9" y1="572" x2="194.1" y2="572" stroke="#bfeee4" stroke-width="0.9" opacity="0.32"/><line x1="186.9" y1="590" x2="201.1" y2="590" stroke="#bfeee4" stroke-width="0.9" opacity="0.32"/><line x1="183.2" y1="608" x2="204.8" y2="608" stroke="#bfeee4" stroke-width="0.9" opacity="0.32"/><line x1="184.4" y1="626" x2="203.6" y2="626" stroke="#bfeee4" stroke-width="0.9" opacity="0.32"/><line x1="190.1" y1="644" x2="197.9" y2="644" stroke="#bfeee4" stroke-width="0.9" opacity="0.32"/><line x1="197.6" y1="662" x2="190.4" y2="662" stroke="#bfeee4" stroke-width="0.9" opacity="0.32"/><line x1="203.4" y1="680" x2="184.6" y2="680" stroke="#bfeee4" stroke-width="0.9" opacity="0.32"/><line x1="204.9" y1="698" x2="183.1" y2="698" stroke="#bfeee4" stroke-width="0.9" opacity="0.32"/><polyline points="52.7,390.7 92.7,390.7 102.0,400.0" fill="none" stroke="#cdeee6" stroke-width="1.3" opacity="0.6" stroke-linejoin="round" stroke-linecap="round"/><circle cx="92.7" cy="390.7" r="1.4" fill="#cdeee6" opacity="0.55"/><polyline points="102.0,400.0 109.5,400.0 131.1,421.6" fill="none" stroke="#cdeee6" stroke-width="1.3" opacity="0.6" stroke-linejoin="round" stroke-linecap="round"/><circle cx="109.5" cy="400.0" r="1.4" fill="#cdeee6" opacity="0.55"/><polyline points="131.1,421.6 60.6,421.6 49.7,432.5" fill="none" stroke="#cdeee6" stroke-width="1.3" opacity="0.6" stroke-linejoin="round" stroke-linecap="round"/><circle cx="60.6" cy="421.6" r="1.4" fill="#cdeee6" opacity="0.55"/><polyline points="49.7,432.5 49.7,484.4 62.8,497.5" fill="none" stroke="#cdeee6" stroke-width="1.3" opacity="0.6" stroke-linejoin="round" stroke-linecap="round"/><circle cx="49.7" cy="484.4" r="1.4" fill="#cdeee6" opacity="0.55"/><polyline points="62.8,497.5 62.8,611.0 114.6,662.9" fill="none" stroke="#cdeee6" stroke-width="1.3" opacity="0.6" stroke-linejoin="round" stroke-linecap="round"/><circle cx="62.8" cy="611.0" r="1.4" fill="#cdeee6" opacity="0.55"/><circle cx="102.0" cy="400.0" r="6.0" fill="none" stroke="#cdeee6" stroke-width="1.3" opacity="0.7"/><g opacity="0.25"><animate attributeName="opacity" values="0.25;0.75;0.25" keyTimes="0;0.5;1" dur="6.2s" begin="-6.0s" repeatCount="indefinite" calcMode="spline" keySplines="0.42 0 0.58 1;0.42 0 0.58 1"/><circle cx="102.0" cy="400.0" r="2.4" fill="#7dd3fc"/></g><circle cx="49.7" cy="432.5" r="4.9" fill="#036b6b" stroke="#cdeee6" stroke-width="1.3" opacity="0.7"/><circle cx="62.8" cy="497.5" r="4.9" fill="#036b6b" stroke="#cdeee6" stroke-width="1.3" opacity="0.7"/><circle cx="131.1" cy="421.6" r="3.3" fill="none" stroke="#cdeee6" stroke-width="1.3" opacity="0.7"/><g opacity="0.25"><animate attributeName="opacity" values="0.25;0.75;0.25" keyTimes="0;0.5;1" dur="7.7s" begin="-2.8s" repeatCount="indefinite" calcMode="spline" keySplines="0.42 0 0.58 1;0.42 0 0.58 1"/><circle cx="131.1" cy="421.6" r="1.3" fill="#7dd3fc"/></g><circle cx="114.6" cy="662.9" r="4.3" fill="#036b6b" stroke="#cdeee6" stroke-width="1.3" opacity="0.7"/><circle cx="52.7" cy="390.7" r="3.9" fill="#036b6b" stroke="#cdeee6" stroke-width="1.3" opacity="0.7"/><g transform="translate(41.0,469.4) rotate(16)"><rect x="-5.5" y="-13.0" width="11" height="26" rx="5.5" fill="#036b6b" stroke="#cdeee6" stroke-width="1.3" opacity="0.55"/><rect x="-5.5" y="1.0" width="11" height="12.0" rx="5.5" fill="#f9a8d4" opacity="0.4"/></g><g transform="translate(199.0,573.8) rotate(-14)"><rect x="-5.5" y="-13.0" width="11" height="26" rx="5.5" fill="#036b6b" stroke="#cdeee6" stroke-width="1.3" opacity="0.55"/><rect x="-5.5" y="1.0" width="11" height="12.0" rx="5.5" fill="#f9a8d4" opacity="0.4"/></g><g opacity="0.2"><animate attributeName="opacity" values="0.2;0.85;0.2" keyTimes="0;0.5;1" dur="9.1s" begin="-8.5s" repeatCount="indefinite" calcMode="spline" keySplines="0.42 0 0.58 1;0.42 0 0.58 1"/><circle cx="168.0" cy="476.9" r="8.0" fill="none" stroke="#cdeee6" stroke-width="1.3" opacity="0.7"/><path d="M168.0,476.9 L168.0,468.9 A8.0,8.0 0 0 1 171.8,483.9 Z" fill="#f9a8d4" opacity="0.55"/><path d="M168.0,476.9 L171.8,483.9 A8.0,8.0 0 0 1 160.0,476.9 Z" fill="#fcd34d" opacity="0.55"/><path d="M168.0,476.9 L160.0,476.9 A8.0,8.0 0 0 1 168.0,468.9 Z" fill="#7dd3fc" opacity="0.55"/></g></g><g opacity="0.43" transform="rotate(30 120.0 564.0)"><polyline points="132.7,542.0 113.6,553.0" fill="none" stroke="#0d2329" stroke-width="1.4" stroke-linecap="round"/><polyline points="113.6,553.0 94.6,542.0" fill="none" stroke="#0d2329" stroke-width="1.4" stroke-linecap="round"/><polyline points="94.6,542.0 94.6,520.0" fill="none" stroke="#0d2329" stroke-width="1.4" stroke-linecap="round"/><polyline points="94.6,520.0 113.6,509.0" fill="none" stroke="#0d2329" stroke-width="1.4" stroke-linecap="round"/><polyline points="113.6,509.0 132.7,520.0" fill="none" stroke="#0d2329" stroke-width="1.4" stroke-linecap="round"/><polyline points="132.7,520.0 132.7,542.0" fill="none" stroke="#0d2329" stroke-width="1.4" stroke-linecap="round"/><polyline points="151.8,575.0 132.7,586.0" fill="none" stroke="#0d2329" stroke-width="1.4" stroke-linecap="round"/><polyline points="132.7,586.0 113.6,575.0" fill="none" stroke="#0d2329" stroke-width="1.4" stroke-linecap="round"/><polyline points="113.6,575.0 113.6,553.0" fill="none" stroke="#0d2329" stroke-width="1.4" stroke-linecap="round"/><polyline points="132.7,542.0 151.8,553.0" fill="none" stroke="#0d2329" stroke-width="1.4" stroke-linecap="round"/><polyline points="151.8,553.0 151.8,575.0" fill="none" stroke="#0d2329" stroke-width="1.4" stroke-linecap="round"/><polyline points="132.7,608.0 113.6,619.0" fill="none" stroke="#0d2329" stroke-width="1.4" stroke-linecap="round"/><polyline points="113.6,619.0 94.6,608.0" fill="none" stroke="#0d2329" stroke-width="1.4" stroke-linecap="round"/><polyline points="94.6,608.0 94.6,586.0" fill="none" stroke="#0d2329" stroke-width="1.4" stroke-linecap="round"/><polyline points="94.6,586.0 113.6,575.0" fill="none" stroke="#0d2329" stroke-width="1.4" stroke-linecap="round"/><polyline points="132.7,586.0 132.7,608.0" fill="none" stroke="#0d2329" stroke-width="1.4" stroke-linecap="round"/><polyline points="128.4,541.2 115.1,548.9" fill="none" stroke="#0d2329" stroke-width="1.05" stroke-linecap="round" opacity="0.85"/><polyline points="97.4,538.7 97.4,523.3" fill="none" stroke="#0d2329" stroke-width="1.05" stroke-linecap="round" opacity="0.85"/><polyline points="115.1,513.1 128.4,520.8" fill="none" stroke="#0d2329" stroke-width="1.05" stroke-linecap="round" opacity="0.85"/><polyline points="147.5,574.2 134.2,581.9" fill="none" stroke="#0d2329" stroke-width="1.05" stroke-linecap="round" opacity="0.85"/><polyline points="116.4,571.7 116.4,556.3" fill="none" stroke="#0d2329" stroke-width="1.05" stroke-linecap="round" opacity="0.85"/><polyline points="134.2,546.1 147.5,553.8" fill="none" stroke="#0d2329" stroke-width="1.05" stroke-linecap="round" opacity="0.85"/><polyline points="128.4,607.2 115.1,614.9" fill="none" stroke="#0d2329" stroke-width="1.05" stroke-linecap="round" opacity="0.85"/><polyline points="97.4,604.7 97.4,589.3" fill="none" stroke="#0d2329" stroke-width="1.05" stroke-linecap="round" opacity="0.85"/><polyline points="115.1,579.1 128.4,586.8" fill="none" stroke="#0d2329" stroke-width="1.05" stroke-linecap="round" opacity="0.85"/><polyline points="94.6,520.0 76.5,509.6" fill="none" stroke="#0d2329" stroke-width="1.4" stroke-linecap="round"/><circle cx="76.5" cy="509.6" r="1.6" fill="#0d2329"/><polyline points="94.6,608.0 76.5,618.5" fill="none" stroke="#0d2329" stroke-width="1.4" stroke-linecap="round"/><circle cx="76.5" cy="618.5" r="1.6" fill="#0d2329"/><polyline points="132.7,520.0 150.8,509.6" fill="none" stroke="#0d2329" stroke-width="1.4" stroke-linecap="round"/><circle cx="150.8" cy="509.6" r="1.6" fill="#0d2329"/></g><g><g opacity="0.4"><animate attributeName="opacity" values="0.4;0.95;0.4" keyTimes="0;0.5;1" dur="19.2s" begin="-13.4s" repeatCount="indefinite" calcMode="spline" keySplines="0.42 0 0.58 1;0.42 0 0.58 1"/><circle cx="74.9" cy="458.5" r="7.0" fill="#7dd3fc" opacity="0.16"/><circle cx="74.9" cy="458.5" r="2.7" fill="#7dd3fc" opacity="0.95"/></g><g opacity="0.4"><animate attributeName="opacity" values="0.4;0.95;0.4" keyTimes="0;0.5;1" dur="18.1s" begin="-9.2s" repeatCount="indefinite" calcMode="spline" keySplines="0.42 0 0.58 1;0.42 0 0.58 1"/><circle cx="186.7" cy="522.9" r="5.5" fill="#f9a8d4" opacity="0.16"/><circle cx="186.7" cy="522.9" r="2.1" fill="#f9a8d4" opacity="0.95"/></g><g opacity="0.4"><animate attributeName="opacity" values="0.4;0.95;0.4" keyTimes="0;0.5;1" dur="19.2s" begin="-3.9s" repeatCount="indefinite" calcMode="spline" keySplines="0.42 0 0.58 1;0.42 0 0.58 1"/><circle cx="153.0" cy="673.8" r="5.6" fill="#7dd3fc" opacity="0.16"/><circle cx="153.0" cy="673.8" r="2.1" fill="#7dd3fc" opacity="0.95"/></g><g opacity="0.4"><animate attributeName="opacity" values="0.4;0.95;0.4" keyTimes="0;0.5;1" dur="25.6s" begin="-7.9s" repeatCount="indefinite" calcMode="spline" keySplines="0.42 0 0.58 1;0.42 0 0.58 1"/><circle cx="44.0" cy="658.0" r="6.0" fill="#7dd3fc" opacity="0.16"/><circle cx="44.0" cy="658.0" r="2.3" fill="#7dd3fc" opacity="0.95"/></g></g></g></svg>